<svg width="162" height="162" viewBox="0 0 162 162" fill="none" xmlns="http://www.w3.org/2000/svg">
<g id="Clip path group">
<mask id="mask0_17_46" style="mask-type:luminance" maskUnits="userSpaceOnUse" x="0" y="0" width="162" height="162">
<g id="a">
<path id="Vector" d="M0 0H162V162H0V0Z" fill="white"/>
</g>
</mask>
<g mask="url(#mask0_17_46)">
<g id="Group">
<path id="coralheart" d="M157.247 54.7134C157.247 31.4792 138.412 12.6446 115.182 12.6446C101.079 12.6446 88.6353 19.6063 81 30.2472C73.3689 19.6063 60.9205 12.6446 46.8222 12.6446C23.588 12.6446 4.75339 31.4792 4.75339 54.7134C4.75339 58.0046 5.17118 61.1934 5.88739 64.2672C11.7322 100.555 52.0787 138.847 81 149.36C109.917 138.847 150.272 100.555 156.104 64.2672C156.829 61.1934 157.247 58.0046 157.247 54.7134Z" fill="#FF6F61"/>
</g>
</g>
</g>
</svg>
